#!OML:ASF E:\Steps\Project 1\Capture day 1\Session 2\Subject.ASF
:FULLY-SPECIFIED
:DEGREES
278
root 12.9586 14.4006 17.0277 -172.06 -3.88363 167.102
lowerback -17.1699 1.41046 3.08003
upperback 3.70927 1.38473 -1.40248
thorax 14.0035 0.97449 -2.92935
lowerneck -0.83261 5.4277 -1.61423
upperneck 16.5339 6.85923 -1.53416
head 5.1071 2.81198 0.0740487
rclavicle 2.08724e-014 2.22639e-014
rhumerus -33.8136 -4.28646 -74.973
rradius 48.2552
rwrist -5.87024
rhand -7.6529 -416.418
rfingers 7.12502
rthumb 18.2428 -445.582
lclavicle 2.08724e-014 2.22639e-014
lhumerus -43.5119 14.5049 66.0355
lradius 20.4202
lwrist -3.40098
lhand -19.0569 -15.2059
lfingers 7.12502
lthumb 7.2502 14.6499
rfemur 1.81582 8.79431 1.72111
rtibia 42.6334
rfoot -45.356 -14.9999
rtoes -45.9098
lfemur -52.9702 4.09758 10.2784
ltibia 23.3294
lfoot 23.5505 17.3247
ltoes -11.8506
279
root 12.8439 14.3542 16.9164 -171.736 -3.67718 166.881
lowerback -17.4665 1.425 2.67105
upperback 3.83236 1.50727 -1.56041
thorax 14.3298 1.0102 -2.83709
lowerneck -0.898469 5.52807 -1.69079
upperneck 16.3962 6.98308 -1.26131
head 5.06279 2.89811 0.176495
rclavicle 5.56597e-015 -3.18055e-015
rhumerus -33.2949 -4.53441 -75.2385
rradius 48.4686
rwrist -5.77472
rhand -7.16578 -418.266
rfingers 7.12502
rthumb 18.7114 -447.387
lclavicle 5.56597e-015 -3.18055e-015
lhumerus -43.3196 13.7306 66.167
lradius 20.5381
lwrist -2.65122
lhand -18.9477 -15.189
lfingers 7.12502
lthumb 7.35563 14.6631
rfemur 2.23609 8.62919 0.863468
rtibia 42.2054
rfoot -45.0422 -15.284
rtoes -47.165
lfemur -53.2648 4.29937 9.59818
ltibia 24.0098
lfoot 24.6703 16.4253
ltoes -12.3187
280
root 12.734 14.3218 16.8347 -171.22 -3.58462 166.77
lowerback -17.507 1.44346 2.33499
upperback 3.79965 1.62318 -1.69688
thorax 14.3176 1.04014 -2.76522
lowerneck -0.888484 5.47739 -1.55129
upperneck 16.2823 6.90836 -1.21572
head 5.02892 2.8811 0.16334
rclavicle -1.98785e-015 -5.08889e-014
rhumerus -32.8889 -4.68363 -75.4851
rradius 48.7258
rwrist -5.91006
rhand -7.12452 -417.107
rfingers 7.12502
rthumb 18.7511 -446.223
lclavicle -1.98785e-015 -5.08889e-014
lhumerus -43.1083 12.9559 66.2417
lradius 20.6456
lwrist -2.22962
lhand -18.8243 -15.2783
lfingers 7.12502
lthumb 7.47474 14.5696
rfemur 2.11649 8.50975 0.162536
rtibia 42.0436
rfoot -44.6054 -15.5329
rtoes -48.1511
lfemur -54.0719 4.36982 9.06556
ltibia 25.1277
lfoot 26.5154 14.5823
ltoes -17.9915
281
root 12.6221 14.2931 16.7639 -170.684 -3.44223 166.783
lowerback -17.2413 1.41977 2.07918
upperback 3.68607 1.66042 -1.77212
thorax 14.019 1.0336 -2.69513
lowerneck -0.92415 5.34297 -1.53101
upperneck 16.139 6.72284 -1.12433
head 4.98786 2.80614 0.179324
rclavicle 8.34896e-015 -1.74931e-014
rhumerus -32.5196 -4.44198 -75.7491
rradius 48.9837
rwrist -6.03144
rhand -6.97632 -416.377
rfingers 7.12502
rthumb 18.8936 -445.479
lclavicle 8.34896e-015 -1.74931e-014
lhumerus -42.9656 12.6872 65.9984
lradius 20.603
lwrist -2.28749
lhand -18.6805 -15.4093
lfingers 7.12502
lthumb 7.61356 14.4337
rfemur 1.77059 8.5783 -0.390108
rtibia 42.0355
rfoot -44.3022 -15.4941
rtoes -48.5672
lfemur -55.0516 4.55061 8.54515
ltibia 26.6393
lfoot 27.1659 14.3484
ltoes -15.2362
282
root 12.5074 14.2597 16.6902 -169.904 -3.06396 166.793
lowerback -17.2508 1.40897 1.73448
upperback 3.57435 1.72578 -1.81951
thorax 13.8872 1.03338 -2.53255
lowerneck -1.06255 5.42183 -1.75542
upperneck 15.9697 6.83215 -0.857057
head 4.94121 2.87669 0.304354
rclavicle 1.64991e-014 -1.90833e-014
rhumerus -31.921 -4.03903 -76.0277
rradius 49.2616
rwrist -6.1254
rhand -7.08585 -415.707
rfingers 7.12502
rthumb 18.7882 -444.82
lclavicle 1.64991e-014 -1.90833e-014
lhumerus -42.7404 12.3645 65.8703
lradius 20.657
lwrist -2.19886
lhand -18.4012 -15.5921
lfingers 7.12502
lthumb 7.8831 14.241
rfemur 1.13226 8.72396 -1.08114
rtibia 41.9613
rfoot -44.1431 -15.0352
rtoes -48.4478
lfemur -56.2092 5.16504 7.84983
ltibia 28.5076
lfoot 27.5497 13.095
ltoes -17.7643
283
root 12.4038 14.2245 16.5984 -169.437 -3.19781 167.059
lowerback -17.1947 1.28337 1.44098
upperback 3.57269 1.61482 -1.75621
thorax 13.8316 0.953692 -2.32656
lowerneck -1.08885 5.56541 -1.88069
upperneck 15.9636 7.01321 -0.663947
head 4.93151 2.97259 0.392246
rclavicle -2.06736e-014 -6.36111e-015
rhumerus -31.3841 -3.84347 -76.2955
rradius 49.5495
rwrist -6.18897
rhand -7.31505 -415.072
rfingers 7.12502
rthumb 18.5678 -444.206
lclavicle -2.06736e-014 -6.36111e-015
lhumerus -42.415 11.7517 65.8256
lradius 20.7145
lwrist -2.23694
lhand -18.4447 -15.861
lfingers 7.12502
lthumb 7.84113 13.9736
rfemur 1.38397 8.697 -1.15001
rtibia 41.4392
rfoot -43.9523 -15.1203
rtoes -48.7332
lfemur -57.3125 5.57845 7.22066
ltibia 30.7708
lfoot 26.6029 11.8851
ltoes -19.861
284
root 12.285 14.1904 16.5073 -169.04 -3.01083 167.525
lowerback -16.9381 1.34641 1.51047
upperback 3.47388 1.67745 -1.68297
thorax 13.5647 0.982147 -2.26756
lowerneck -0.997899 5.4589 -1.85643
upperneck 16.0686 6.83875 -0.599595
head 4.94767 2.88406 0.39885
rclavicle -4.57205e-015 -3.49861e-014
rhumerus -31.1983 -3.56943 -76.4739
rradius 49.9266
rwrist -6.37857
rhand -8.04146 -413.684
rfingers 7.12502
rthumb 17.8689 -442.883
lclavicle -4.57205e-015 -3.49861e-014
lhumerus -42.128 11.2468 65.6924
lradius 20.605
lwrist -2.52552
lhand -18.7414 -15.8616
lfingers 7.12502
lthumb 7.55473 13.9835
rfemur 1.3735 8.78113 -1.18013
rtibia 41.2751
rfoot -43.8045 -15.2673
rtoes -49.6839
lfemur -58.3042 6.33566 6.6797
ltibia 33.4835
lfoot 20.8113 11.6426
ltoes -29.9427
285
root 12.164 14.1611 16.4203 -168.566 -2.80346 167.826
lowerback -16.6764 1.34044 1.36847
upperback 3.38975 1.69467 -1.62582
thorax 13.3032 0.973221 -2.12023
lowerneck -1.01067 5.23947 -1.87103
upperneck 15.9726 6.53518 -0.534442
head 4.91865 2.7426 0.407067
rclavicle 3.37934e-015 -1.59028e-015
rhumerus -30.9694 -3.01284 -76.6812
rradius 50.4457
rwrist -6.78847
rhand -3.44199 -422.491
rfingers 7.12502
rthumb 22.2897 -268.774
lclavicle 3.37934e-015 -1.59028e-015
lhumerus -41.823 10.4922 65.7631
lradius 20.6487
lwrist -2.33623
lhand -18.6892 -15.9672
lfingers 7.12502
lthumb 7.60513 13.8761
rfemur 1.26274 8.97976 -1.39203
rtibia 41.1185
rfoot -43.7014 -14.9126
rtoes -49.9457
lfemur -59.394 7.08989 5.9313
ltibia 36.2151
lfoot 17.1446 10.1675
ltoes -40.472
286
root 12.0505 14.1315 16.3377 -168.121 -2.88066 168.239
lowerback -16.268 1.27357 1.21483
upperback 3.33852 1.6295 -1.53475
thorax 12.9869 0.924462 -1.95343
lowerneck -1.08995 5.06002 -1.731
upperneck 15.8221 6.31076 -0.629383
head 4.8944 2.64415 0.346279
rclavicle -2.98177e-015 0
rhumerus -30.6113 -2.84664 -76.9136
rradius 50.8222
rwrist -7.23613
rhand -0.819955 -428.966
rfingers 7.12502
rthumb 24.8048 -262.623
lclavicle -2.98177e-015 0
lhumerus -41.3532 9.50863 65.8724
lradius 20.7834
lwrist -1.96734
lhand -18.5223 -16.3439
lfingers 7.12502
lthumb 7.76621 13.4934
rfemur 1.31624 9.07744 -1.31479
rtibia 40.7044
rfoot -43.4048 -14.6737
rtoes -49.8899
lfemur -60.5345 7.71722 5.33262
ltibia 38.6107
lfoot 14.5551 8.4991
ltoes -47.4593
287
root 11.9261 14.0984 16.2412 -167.383 -2.56652 168.535
lowerback -16.2931 1.35717 1.00152
upperback 3.21871 1.78544 -1.54913
thorax 12.8642 0.978954 -1.80538
lowerneck -1.16017 4.95903 -1.55492
upperneck 15.8196 6.17133 -0.654307
head 4.91223 2.58623 0.306123
rclavicle -6.36111e-015 7.15625e-014
rhumerus -30.3662 -2.93315 -77.1451
rradius 50.8604
rwrist -8.07908
rhand -14.2628 -432.092
rfingers 7.12502
rthumb 11.8757 -258.265
lclavicle -6.36111e-015 7.15625e-014
lhumerus -40.7249 8.83876 65.7216
lradius 20.727
lwrist -1.97096
lhand -18.4302 -16.3561
lfingers 7.12502
lthumb 7.85515 13.4779
rfemur 0.948962 9.142 -1.69771
rtibia 40.3223
rfoot -43.0834 -14.35
rtoes -49.8847
lfemur -61.6118 8.66891 4.72184
ltibia 40.4765
lfoot 12.2094 7.6826
ltoes -50.3097
